<?xml version="1.0" encoding="UTF-8"?>
<svg width="254px" height="64px" viewBox="0 0 254 64" version="1.1" xmlns="http://www.w3.org/2000/svg" xmlns:xlink="http://www.w3.org/1999/xlink">
    <title>Cobofisk-Liggend</title>
    <g id="Symbols" stroke="none" stroke-width="1" fill="none" fill-rule="evenodd">
        <g id="Header" transform="translate(-262.000000, -81.000000)" fill="#FFFFFF" fill-rule="nonzero">
            <g id="Cobofisk-Liggend" transform="translate(262.000000, 81.000000)">
                <g id="Group" transform="translate(65.000000, 11.000000)">
                    <path d="M18.7557252,18.3555556 L21.8294059,18.3555556 C21.8294059,18.6666667 21.8294059,19.04 21.8921341,19.6 C21.9548623,20.16 21.9548623,20.5955556 21.9548623,20.8444444 C21.9548623,24.9511111 19.9475606,27.1911111 15.870229,27.5644444 C14.3647527,27.6266667 12.9220046,27.6888889 11.4792566,27.6888889 L7.6528377,27.6888889 C5.70826419,27.5644444 4.20278792,27.0666667 3.13640889,26.2577778 C2.07002987,25.4488889 1.31729174,24.3911111 0.878194491,23.1466667 C0.439097245,21.9022222 0.188184534,20.3466667 0.125456356,18.5422222 C0.0627281779,16.7377778 0,15.2444444 0,13.9377778 L0,9.58222222 C0,7.77777778 0.188184534,6.22222222 0.627281779,4.91555556 C1.06637902,3.60888889 1.75638898,2.61333333 2.76003983,1.86666667 C3.76369067,1.05777778 5.20643877,0.622222222 7.0882841,0.435555556 C8.2173913,0.311111111 10.0365085,0.186666667 12.4201792,0.186666667 C14.3647527,0.186666667 15.870229,0.311111111 16.9993362,0.497777778 C18.1284434,0.684444444 19.0066379,1.12 19.6339197,1.68 C20.2612015,2.24 20.7630269,3.11111111 21.0766678,4.23111111 C21.3903087,5.35111111 21.5784932,6.84444444 21.7039496,8.77333333 L18.5048125,8.77333333 C18.5048125,7.21777778 18.3793561,6.03555556 18.1911716,5.22666667 C18.0029871,4.41777778 17.5011616,3.79555556 16.8111517,3.42222222 C16.1211417,3.04888889 15.0547627,2.8 13.6120146,2.8 C11.9183538,2.8 9.97378029,2.86222222 7.84102224,2.98666667 C6.5237305,3.11111111 5.52007965,3.42222222 4.89279788,3.85777778 C4.20278792,4.35555556 3.76369067,5.04 3.57550614,5.84888889 C3.38732161,6.72 3.26186525,7.84 3.26186525,9.33333333 L3.26186525,15.6177778 C3.26186525,19.3511111 3.63823432,21.84 4.32824427,23.1466667 C4.95552605,24.3288889 6.77464321,24.8888889 9.78559575,24.8888889 C9.97378029,24.8888889 10.4128775,24.8888889 10.9774311,24.9511111 C11.5419847,25.0133333 11.981082,25.0133333 12.357451,25.0133333 C14.2392964,25.0133333 15.7447727,24.7644444 16.9993362,24.2666667 C18.1911716,23.7688889 18.8811815,22.7733333 18.9439097,21.28 C18.9439097,20.9066667 18.9439097,20.4088889 18.8811815,19.7244444 C18.7557252,19.2266667 18.7557252,18.7288889 18.7557252,18.3555556 Z" id="Path"></path>
                    <path d="M27.5376701,14.4977778 L27.5376701,12.88 C27.5376701,10.5777778 27.6003983,8.71111111 27.7258546,7.34222222 C27.851311,5.91111111 28.2276801,4.66666667 28.7295055,3.54666667 C29.2940591,2.42666667 30.1722536,1.55555556 31.4268171,0.933333333 C32.6813807,0.311111111 34.3750415,0 36.5077995,0 L37.8250913,0 C39.9578493,0 41.6515101,0.124444444 42.9688019,0.311111111 C44.2860936,0.497777778 45.4152008,0.871111111 46.2933953,1.49333333 C47.234318,2.11555556 47.8615997,2.98666667 48.3634252,4.23111111 C48.8025224,5.47555556 49.0534351,7.15555556 49.0534351,9.20888889 C49.0534351,13.5022222 49.0534351,16.7377778 48.9907069,18.9777778 C48.9279788,20.6577778 48.7397942,22.0888889 48.4261533,23.2088889 C48.1125124,24.3288889 47.610687,25.2622222 46.8579489,25.9466667 C46.1679389,26.6311111 45.2270163,27.1288889 44.0351809,27.5022222 C42.8433455,27.8133333 41.4005974,28 39.6442084,28 C39.3932957,28 39.0169267,28 38.5151012,27.9377778 C38.0132758,27.8755556 37.5741786,27.8755556 37.2605377,27.8755556 C35.5668769,27.8755556 34.186857,27.7511111 33.0577498,27.5644444 C31.9286425,27.3777778 30.9877199,26.9422222 30.1722536,26.3822222 C29.3567873,25.8222222 28.7922337,25.0133333 28.3531364,23.9555556 C27.9140392,22.8977778 27.6631265,21.5288889 27.5376701,19.7866667 C27.5376701,18.6044444 27.5376701,16.8 27.5376701,14.4977778 Z M30.674079,14.3111111 L30.674079,18.6666667 C30.7368072,20.4711111 30.9249917,21.84 31.2386326,22.7733333 C31.5522735,23.7066667 32.1795553,24.3288889 33.1204779,24.7022222 C33.9986724,25.0755556 35.3786923,25.2622222 37.2605377,25.2622222 C39.0169267,25.2622222 40.4596747,25.2 41.4005974,25.0755556 C42.4042483,24.9511111 43.2197146,24.7022222 43.9097245,24.2666667 C44.5370063,23.8311111 45.0388317,23.1466667 45.4152008,22.2133333 C45.7288417,21.28 45.9170262,19.9733333 45.9797544,18.3555556 C46.0424826,16.3644444 46.0424826,13.3777778 46.0424826,9.33333333 C46.0424826,7.15555556 45.7915699,5.6 45.2897444,4.66666667 C44.787919,3.73333333 44.0351809,3.17333333 43.03153,2.92444444 C42.0278792,2.67555556 40.3342184,2.61333333 38.076004,2.61333333 L37.009625,2.61333333 C35.3159642,2.61333333 33.9986724,2.73777778 33.1832061,3.04888889 C32.3677398,3.36 31.740458,3.98222222 31.3640889,4.91555556 C30.9877199,5.84888889 30.7995353,7.28 30.7995353,9.27111111 L30.674079,14.3111111 Z" id="Shape"></path>
                    <path d="M54.8244275,27.6266667 L54.8244275,0.373333333 L68.060073,0.373333333 C69.7537338,0.373333333 71.0710256,0.56 72.0746764,0.995555556 C73.0783272,1.43111111 73.8310654,2.11555556 74.3328908,3.11111111 C74.8347162,4.10666667 75.0856289,5.41333333 75.0856289,7.15555556 C75.0856289,8.89777778 74.8347162,10.2666667 74.395619,11.2 C73.9565217,12.1333333 72.9528709,12.88 71.5101228,13.3155556 C73.2665118,13.8133333 74.4583472,14.56 75.0229008,15.4933333 C75.5874544,16.4266667 75.9010953,17.8577778 75.9010953,19.7866667 C75.9010953,21.5288889 75.7129107,22.96 75.2738135,24.08 C74.8347162,25.2622222 74.0819781,26.1333333 73.0783272,26.7555556 C72.0746764,27.3777778 70.6319283,27.6888889 68.8755393,27.6888889 L54.8244275,27.6888889 L54.8244275,27.6266667 Z M67.6837039,3.04888889 L57.9608364,3.04888889 L57.9608364,12.2577778 L66.6173249,12.2577778 C67.9973448,12.2577778 69.0637239,12.1333333 69.8791902,11.8222222 C70.6319283,11.5733333 71.1964819,11.0755556 71.5101228,10.3288889 C71.8237637,9.64444444 72.0119482,8.58666667 72.0119482,7.28 C72.0119482,5.6 71.6983073,4.48 71.1337537,3.92 C70.4437438,3.36 69.3146366,3.04888889 67.6837039,3.04888889 Z M68.750083,14.9955556 L57.8981082,14.9955556 L57.8981082,24.9511111 L66.3664122,24.9511111 C68.1228012,24.9511111 69.4400929,24.8266667 70.2555592,24.64 C71.0710256,24.4533333 71.6983073,24.0177778 72.0746764,23.2711111 C72.4510455,22.5866667 72.63923,21.4044444 72.63923,19.8488889 C72.63923,18.2311111 72.3883173,16.9866667 71.8864919,16.1777778 C71.3846664,15.4311111 70.3810156,14.9955556 68.750083,14.9955556 Z" id="Shape"></path>
                    <path d="M81.4211749,14.4977778 L81.4211749,12.88 C81.4211749,10.5777778 81.4839031,8.71111111 81.6093594,7.34222222 C81.7348158,5.91111111 82.1111849,4.66666667 82.6130103,3.54666667 C83.1775639,2.42666667 84.0557584,1.55555556 85.3103219,0.933333333 C86.5648855,0.311111111 88.2585463,0 90.3913043,0 L91.7085961,0 C93.8413541,0 95.5350149,0.124444444 96.8523067,0.311111111 C98.1695984,0.497777778 99.2987056,0.871111111 100.1769,1.49333333 C101.055095,2.11555556 101.745105,2.98666667 102.24693,4.23111111 C102.686027,5.47555556 102.93694,7.15555556 102.93694,9.20888889 C102.93694,13.5022222 102.93694,16.7377778 102.874212,18.9777778 C102.811484,20.6577778 102.623299,22.0888889 102.309658,23.2088889 C101.996017,24.3288889 101.494192,25.2622222 100.741454,25.9466667 C100.051444,26.6311111 99.1105211,27.1288889 97.9186857,27.5022222 C96.7268503,27.8133333 95.2841022,28 93.5277132,28 C93.2768005,28 92.9004315,28 92.398606,27.9377778 C91.8967806,27.8755556 91.4576834,27.8755556 91.1440425,27.8755556 C89.4503817,27.8755556 88.0703618,27.7511111 86.9412546,27.5644444 C85.8121474,27.3777778 84.8712247,26.9422222 84.0557584,26.3822222 C83.2402921,25.8222222 82.6757385,25.0133333 82.2366412,23.9555556 C81.797544,22.8977778 81.5466313,21.5288889 81.4211749,19.7866667 C81.4839031,18.6044444 81.4211749,16.8 81.4211749,14.4977778 Z M84.620312,14.3111111 L84.620312,18.6666667 C84.6830402,20.4711111 84.8712247,21.84 85.1848656,22.7733333 C85.4985065,23.7066667 86.1257883,24.3288889 87.0667109,24.7022222 C87.9449054,25.0755556 89.3249253,25.2622222 91.2067707,25.2622222 C92.9631596,25.2622222 94.4059077,25.2 95.3468304,25.0755556 C96.3504812,24.9511111 97.1659476,24.7022222 97.7932293,24.2666667 C98.4205111,23.8311111 98.9223365,23.1466667 99.2987056,22.2133333 C99.6123465,21.28 99.800531,19.9733333 99.8632592,18.3555556 C99.9259874,16.3644444 99.9259874,13.3777778 99.9259874,9.33333333 C99.9259874,7.15555556 99.6750747,5.6 99.1732493,4.66666667 C98.6714238,3.73333333 97.9186857,3.17333333 96.9150348,2.92444444 C95.911384,2.67555556 94.2177232,2.61333333 91.9595088,2.61333333 L90.8931298,2.61333333 C89.199469,2.61333333 87.8821772,2.73777778 87.0667109,3.04888889 C86.2512446,3.36 85.6239628,3.98222222 85.2475938,4.91555556 C84.8712247,5.84888889 84.6830402,7.28 84.6830402,9.27111111 L84.620312,14.3111111 Z" id="Shape"></path>
                    <polygon id="Path" points="111.844341 3.11111111 111.844341 12.5688889 125.142715 12.5688889 125.142715 15.12 111.844341 15.12 111.844341 27.6266667 108.707932 27.6266667 108.707932 0.373333333 125.581812 0.373333333 125.581812 3.11111111"></polygon>
                    <polygon id="Path" points="134.238301 0.373333333 134.238301 27.6888889 131.16462 27.6888889 131.16462 0.373333333"></polygon>
                    <path d="M159.768669,7.90222222 L156.757717,7.90222222 C156.694988,6.47111111 156.506804,5.41333333 156.193163,4.72888889 C155.879522,4.04444444 155.377697,3.54666667 154.687687,3.23555556 C153.997677,2.92444444 152.931298,2.8 151.48855,2.8 L149.920345,2.8 C147.097577,2.8 145.215732,3.11111111 144.337537,3.67111111 C143.333886,4.29333333 142.832061,5.53777778 142.832061,7.46666667 C142.832061,8.52444444 142.957517,9.39555556 143.145702,10.0177778 C143.333886,10.64 143.772984,11.1377778 144.337537,11.5111111 C144.902091,11.8844444 145.780285,12.0711111 146.909393,12.1333333 C147.097577,12.1333333 148.477597,12.1955556 150.986724,12.2577778 C153.495851,12.32 155.314968,12.5688889 156.506804,12.88 C157.635911,13.1911111 158.576834,13.9377778 159.266844,14.9333333 C159.956854,15.9911111 160.333223,17.5466667 160.333223,19.6 C160.333223,21.2177778 160.207766,22.5244444 159.956854,23.5822222 C159.705941,24.64 159.141387,25.5111111 158.325921,26.1955556 C157.510455,26.88 156.318619,27.3155556 154.750415,27.44 C153.244939,27.5644444 151.48855,27.6888889 149.481248,27.6888889 C147.787587,27.6888889 146.407567,27.6266667 145.27846,27.44 C144.149353,27.3155556 143.145702,27.0044444 142.330236,26.5066667 C141.514769,26.0088889 140.824759,25.2622222 140.322934,24.2666667 C139.821109,23.2711111 139.632924,21.9644444 139.632924,20.3466667 C139.632924,20.2222222 139.632924,19.9733333 139.632924,19.7244444 C139.632924,19.4755556 139.632924,19.2266667 139.632924,19.1022222 L142.581148,19.1022222 C142.581148,20.8444444 142.706605,22.0888889 143.020246,22.8977778 C143.333886,23.7066667 143.835712,24.2666667 144.651178,24.5777778 C145.466645,24.8888889 146.721208,25.0755556 148.477597,25.0755556 L151.049452,25.0755556 C152.680385,25.0755556 153.934949,24.9511111 154.813143,24.7644444 C155.628609,24.5777778 156.255891,24.08 156.63226,23.3333333 C157.008629,22.5866667 157.196814,21.4666667 157.196814,19.9111111 C157.196814,18.6666667 157.071357,17.6711111 156.883173,17.0488889 C156.694988,16.4266667 156.255891,15.9911111 155.628609,15.68 C155.001328,15.4311111 154.123133,15.2444444 152.86857,15.1822222 C151.112181,15.12 149.41852,15.0577778 147.787587,14.9333333 C146.156654,14.8088889 144.713906,14.6222222 143.522071,14.1866667 C142.330236,13.8133333 141.452041,13.0666667 140.699303,12.0088889 C140.009293,10.9511111 139.632924,9.39555556 139.632924,7.46666667 C139.632924,5.41333333 140.009293,3.79555556 140.762031,2.73777778 C141.514769,1.68 142.51842,0.995555556 143.89844,0.622222222 C145.215732,0.248888889 146.972121,0.124444444 149.104879,0.124444444 L149.794889,0.124444444 C151.48855,0.124444444 152.931298,0.186666667 153.997677,0.311111111 C155.126784,0.435555556 156.067707,0.746666667 156.945901,1.18222222 C157.824096,1.61777778 158.451377,2.36444444 158.953203,3.36 C159.455028,4.35555556 159.643213,5.66222222 159.643213,7.34222222 L159.643213,7.90222222 L159.768669,7.90222222 Z" id="Path"></path>
                    <polygon id="Path" points="169.491537 0.373333333 169.491537 12.2577778 172.188848 12.2577778 183.417192 0.373333333 187.494524 0.373333333 174.88616 13.5644444 189 27.6888889 184.734484 27.6888889 172.188848 15.0577778 169.491537 15.0577778 169.491537 27.6888889 166.2924 27.6888889 166.2924 0.373333333"></polygon>
                </g>
                <g id="Group">
                    <path d="M0.125581395,48.4867517 L26.6860465,63.81158 C27.1255814,64.0628067 27.7534884,64.0628067 28.1930233,63.81158 L53.6232558,49.1148184 C53.9372093,48.9263984 54,48.6123651 54,48.4867517 C54,48.3611384 53.9372093,48.047105 53.6232558,47.858685 L27.4395349,32.7222767 L0.125581395,48.4867517 Z" id="Path"></path>
                    <polygon id="Path" points="0 16.8321884 0 46.9165849 26.0581395 31.90579"></polygon>
                    <path d="M25.8069767,59.0382728 C26.3093023,59.3523062 26.8744186,59.4779195 27.5023256,59.4779195 C28.0674419,59.4779195 28.6953488,59.3523062 29.1976744,59.0382728 L44.0162791,50.4965653 C44.0162791,50.4965653 43.9534884,50.4337586 43.9534884,50.4337586 L43.0116279,49.8684985 L28.6953488,58.0961727 C28.0046512,58.4730128 27.0627907,58.4730128 26.372093,58.0961727 L17.5813953,53.0088322 L16.5139535,53.6368989 L25.8069767,59.0382728 Z" id="Path"></path>
                    <path d="M52.9325581,17.8370952 C53.5604651,17.4602552 53.9372093,16.8321884 53.9372093,16.0785083 C53.9372093,15.3248283 53.5604651,14.6967615 52.9325581,14.3199215 L28.8209302,0.376840039 C27.9418605,-0.125613346 26.9372093,-0.125613346 26.0581395,0.376840039 L0.313953488,15.2620216 L1.56976744,15.952895 L26.7488372,1.44455348 C27.1883721,1.19332679 27.8162791,1.19332679 28.255814,1.44455348 L52.3674419,15.3876349 C52.744186,15.576055 52.744186,15.952895 52.744186,16.0785083 C52.744186,16.2041217 52.6813953,16.5809617 52.3674419,16.7693817 L27.627907,31.0264966 L28.8837209,31.71737 L52.9325581,17.8370952 Z" id="Path"></path>
                </g>
                <g id="Group" transform="translate(66.000000, 45.000000)">
                    <path d="M6.768,7.75641026 L1.94266667,7.75641026 L1.19066667,9.87179487 L0,9.87179487 L3.50933333,0 L5.076,0 L8.648,9.87179487 L7.52,9.87179487 L6.768,7.75641026 Z M6.45466667,6.85897436 L4.324,0.769230769 L2.19333333,6.85897436 L6.45466667,6.85897436 Z" id="Shape"></path>
                    <path d="M15.416,7.30769231 L16.4186667,7.30769231 C16.4186667,8.01282051 16.2933333,8.52564103 16.1053333,8.91025641 C15.9173333,9.29487179 15.604,9.55128205 15.228,9.67948718 C14.852,9.80769231 14.288,9.87179487 13.536,9.87179487 C12.8466667,9.87179487 12.2826667,9.80769231 11.9066667,9.67948718 C11.5306667,9.55128205 11.2173333,9.29487179 11.0293333,9.03846154 C10.8413333,8.71794872 10.716,8.3974359 10.6533333,7.94871795 C10.5906667,7.5 10.5906667,6.92307692 10.5906667,6.15384615 C10.5906667,5.32051282 10.6533333,4.67948718 10.8413333,4.23076923 C11.0293333,3.78205128 11.28,3.3974359 11.7186667,3.20512821 C12.1573333,3.01282051 12.784,2.88461538 13.536,2.88461538 C14.4133333,2.88461538 15.04,3.01282051 15.5413333,3.33333333 C16.0426667,3.58974359 16.2306667,4.16666667 16.2306667,5 L16.2306667,5.19230769 L15.228,5.19230769 C15.228,4.74358974 15.1653333,4.48717949 15.04,4.23076923 C14.9146667,4.03846154 14.7893333,3.84615385 14.5386667,3.78205128 C14.288,3.71794872 13.9746667,3.65384615 13.5986667,3.65384615 C12.972,3.65384615 12.5333333,3.71794872 12.2826667,3.84615385 C12.032,3.97435897 11.844,4.16666667 11.7186667,4.48717949 C11.656,4.80769231 11.5933333,5.32051282 11.5933333,6.02564103 L11.5933333,6.73076923 C11.5933333,7.37179487 11.656,7.82051282 11.7186667,8.14102564 C11.7813333,8.46153846 11.9693333,8.71794872 12.22,8.84615385 C12.4706667,9.03846154 12.9093333,9.1025641 13.4733333,9.1025641 C14.0373333,9.1025641 14.4133333,9.03846154 14.664,8.97435897 C14.9146667,8.91025641 15.1026667,8.71794872 15.228,8.52564103 C15.3533333,8.26923077 15.416,7.88461538 15.416,7.30769231 Z" id="Path"></path>
                    <path d="M23.312,7.30769231 L24.3146667,7.30769231 C24.3146667,8.01282051 24.1893333,8.52564103 24.0013333,8.91025641 C23.8133333,9.29487179 23.5,9.55128205 23.124,9.67948718 C22.748,9.80769231 22.184,9.87179487 21.432,9.87179487 C20.7426667,9.87179487 20.1786667,9.80769231 19.8026667,9.67948718 C19.4266667,9.55128205 19.1133333,9.29487179 18.9253333,9.03846154 C18.7373333,8.71794872 18.612,8.3974359 18.5493333,7.94871795 C18.4866667,7.5 18.4866667,6.92307692 18.4866667,6.15384615 C18.4866667,5.32051282 18.5493333,4.67948718 18.7373333,4.23076923 C18.9253333,3.78205128 19.176,3.3974359 19.6146667,3.20512821 C20.0533333,3.01282051 20.68,2.88461538 21.432,2.88461538 C22.3093333,2.88461538 22.936,3.01282051 23.4373333,3.33333333 C23.9386667,3.58974359 24.1266667,4.16666667 24.1266667,5 L24.1266667,5.19230769 L23.124,5.19230769 C23.124,4.74358974 23.0613333,4.48717949 22.936,4.23076923 C22.8106667,4.03846154 22.6853333,3.84615385 22.4346667,3.78205128 C22.184,3.71794872 21.8706667,3.65384615 21.4946667,3.65384615 C20.868,3.65384615 20.4293333,3.71794872 20.1786667,3.84615385 C19.928,3.97435897 19.74,4.16666667 19.6146667,4.48717949 C19.552,4.80769231 19.4893333,5.32051282 19.4893333,6.02564103 L19.4893333,6.73076923 C19.4893333,7.37179487 19.552,7.82051282 19.6146667,8.14102564 C19.6773333,8.46153846 19.8653333,8.71794872 20.116,8.84615385 C20.3666667,9.03846154 20.8053333,9.1025641 21.3693333,9.1025641 C21.9333333,9.1025641 22.3093333,9.03846154 22.56,8.97435897 C22.8106667,8.91025641 22.9986667,8.71794872 23.124,8.52564103 C23.2493333,8.26923077 23.312,7.88461538 23.312,7.30769231 Z" id="Path"></path>
                    <path d="M26.32,6.21794872 C26.32,5.38461538 26.3826667,4.74358974 26.508,4.23076923 C26.6333333,3.78205128 26.9466667,3.3974359 27.3226667,3.14102564 C27.7613333,2.88461538 28.3253333,2.82051282 29.14,2.82051282 C30.0173333,2.82051282 30.644,2.94871795 31.0826667,3.14102564 C31.5213333,3.33333333 31.8346667,3.65384615 31.96,4.1025641 C32.148,4.55128205 32.2106667,5.25641026 32.2106667,6.15384615 C32.2106667,7.11538462 32.148,7.82051282 32.0853333,8.33333333 C32.0226667,8.84615385 31.772,9.23076923 31.3333333,9.55128205 C30.8946667,9.87179487 30.268,10 29.3906667,10 C28.576,10 27.8866667,9.93589744 27.448,9.74358974 C27.0093333,9.55128205 26.696,9.29487179 26.508,8.84615385 C26.32,8.3974359 26.1946667,7.75641026 26.1946667,6.92307692 L26.1946667,6.21794872 L26.32,6.21794872 Z M27.3853333,6.21794872 L27.3853333,6.79487179 C27.3853333,7.88461538 27.5106667,8.52564103 27.7613333,8.84615385 C27.9493333,9.03846154 28.3253333,9.16666667 28.8266667,9.16666667 L29.328,9.16666667 C29.7666667,9.16666667 30.08,9.1025641 30.3306667,9.03846154 C30.5813333,8.97435897 30.7693333,8.84615385 30.8946667,8.58974359 C31.02,8.3974359 31.1453333,8.07692308 31.1453333,7.62820513 C31.1453333,7.24358974 31.1453333,6.73076923 31.1453333,6.02564103 C31.1453333,5.38461538 31.1453333,4.87179487 31.0826667,4.55128205 C31.02,4.23076923 30.8946667,4.03846154 30.644,3.84615385 C30.3933333,3.71794872 30.0173333,3.58974359 29.516,3.58974359 L29.328,3.58974359 C28.7013333,3.58974359 28.2626667,3.65384615 28.012,3.78205128 C27.7613333,3.91025641 27.5733333,4.1025641 27.448,4.42307692 C27.3853333,4.74358974 27.3226667,5.25641026 27.3226667,5.8974359 L27.3226667,6.21794872 L27.3853333,6.21794872 Z" id="Shape"></path>
                    <path d="M39.9186667,2.94871795 L39.9186667,9.87179487 L38.9786667,9.87179487 L38.9786667,8.97435897 C38.728,9.35897436 38.352,9.67948718 38.0386667,9.80769231 C37.6626667,9.93589744 37.224,10 36.66,10 C35.8453333,10 35.2813333,9.80769231 34.9053333,9.42307692 C34.5293333,9.03846154 34.3413333,8.3974359 34.3413333,7.56410256 L34.3413333,3.01282051 L35.4066667,3.01282051 L35.4066667,7.56410256 C35.4066667,8.01282051 35.4693333,8.26923077 35.532,8.52564103 C35.5946667,8.71794872 35.7826667,8.91025641 35.9706667,8.97435897 C36.1586667,9.03846154 36.472,9.1025641 36.9106667,9.1025641 C37.4746667,9.1025641 37.8506667,9.03846154 38.164,8.91025641 C38.4773333,8.78205128 38.6653333,8.58974359 38.7906667,8.26923077 C38.916,7.94871795 38.9786667,7.56410256 38.9786667,7.05128205 L38.9786667,3.01282051 L39.9186667,3.01282051 L39.9186667,2.94871795 Z" id="Path"></path>
                    <path d="M41.8613333,2.94871795 L42.8013333,2.94871795 L42.8013333,3.84615385 C43.052,3.46153846 43.3653333,3.14102564 43.7413333,3.01282051 C44.1173333,2.88461538 44.556,2.75641026 45.12,2.75641026 C45.7466667,2.75641026 46.248,2.82051282 46.5613333,3.01282051 C46.9373333,3.14102564 47.188,3.3974359 47.3133333,3.78205128 C47.5013333,4.16666667 47.564,4.61538462 47.564,5.25641026 L47.564,9.80769231 L46.5613333,9.80769231 L46.5613333,5.32051282 C46.5613333,4.87179487 46.4986667,4.48717949 46.436,4.23076923 C46.3733333,3.97435897 46.1853333,3.84615385 45.9346667,3.71794872 C45.684,3.58974359 45.3706667,3.58974359 44.8693333,3.58974359 C43.5533333,3.58974359 42.864,4.23076923 42.864,5.57692308 L42.864,9.80769231 L41.8613333,9.80769231 L41.8613333,2.94871795 Z" id="Path"></path>
                    <path d="M54.0186667,2.94871795 L54.0186667,3.78205128 L51.4493333,3.78205128 L51.4493333,8.01282051 C51.4493333,8.46153846 51.512,8.71794872 51.6373333,8.84615385 C51.7626667,8.97435897 52.0133333,9.1025641 52.3893333,9.1025641 C52.828,9.1025641 53.0786667,9.03846154 53.204,8.84615385 C53.3293333,8.65384615 53.392,8.33333333 53.392,7.88461538 L53.392,7.43589744 L54.332,7.43589744 C54.332,8.26923077 54.2066667,8.91025641 53.956,9.29487179 C53.7053333,9.67948718 53.204,9.93589744 52.3893333,9.93589744 C51.888,9.93589744 51.512,9.87179487 51.1986667,9.74358974 C50.8853333,9.61538462 50.6973333,9.42307692 50.572,9.16666667 C50.4466667,8.91025641 50.384,8.52564103 50.384,8.01282051 L50.384,3.78205128 L49.5066667,3.78205128 L49.5066667,2.94871795 L50.384,2.94871795 L50.384,1.28205128 L51.3866667,1.28205128 L51.3866667,2.94871795 L54.0186667,2.94871795 Z" id="Path"></path>
                    <path d="M57.6533333,4.93589744 L56.588,4.93589744 C56.588,4.1025641 56.776,3.52564103 57.2146667,3.26923077 C57.6533333,3.01282051 58.3426667,2.88461538 59.22,2.88461538 C59.9093333,2.88461538 60.4733333,2.94871795 60.8493333,3.07692308 C61.288,3.20512821 61.6013333,3.3974359 61.7893333,3.78205128 C61.9773333,4.1025641 62.1026667,4.67948718 62.1026667,5.32051282 L62.1026667,9.80769231 L61.288,9.80769231 L61.3506667,9.1025641 C61.1,9.42307692 60.7866667,9.67948718 60.4106667,9.80769231 C60.0346667,9.93589744 59.596,10 59.032,10 C58.4053333,10 57.9666667,9.93589744 57.5906667,9.80769231 C57.2146667,9.67948718 56.9013333,9.48717949 56.7133333,9.16666667 C56.5253333,8.84615385 56.4,8.3974359 56.4,7.75641026 C56.4,7.17948718 56.5253333,6.73076923 56.7133333,6.41025641 C56.9013333,6.08974359 57.2146667,5.8974359 57.5906667,5.83333333 C57.9666667,5.70512821 58.468,5.70512821 59.032,5.70512821 C59.5333333,5.70512821 59.972,5.76923077 60.348,5.83333333 C60.724,5.8974359 60.9746667,6.08974359 61.1626667,6.41025641 L61.1626667,5.57692308 C61.1626667,5 61.1,4.55128205 61.0373333,4.29487179 C60.9746667,4.03846154 60.7866667,3.84615385 60.4733333,3.78205128 C60.2226667,3.71794872 59.784,3.65384615 59.22,3.65384615 C58.5933333,3.65384615 58.1546667,3.71794872 57.904,3.91025641 C57.716,4.03846154 57.5906667,4.29487179 57.5906667,4.67948718 C57.5906667,4.67948718 57.5906667,4.74358974 57.5906667,4.80769231 C57.6533333,4.87179487 57.6533333,4.93589744 57.6533333,4.93589744 Z M57.4653333,7.69230769 C57.4653333,8.26923077 57.5906667,8.65384615 57.7786667,8.84615385 C58.0293333,9.03846154 58.4053333,9.16666667 58.9693333,9.16666667 C59.408,9.16666667 59.784,9.16666667 60.0973333,9.1025641 C60.4106667,9.03846154 60.6613333,8.91025641 60.912,8.78205128 C61.1626667,8.58974359 61.2253333,8.26923077 61.2253333,7.88461538 C61.2253333,7.30769231 61.1,6.98717949 60.7866667,6.79487179 C60.4733333,6.66666667 60.0346667,6.53846154 59.408,6.53846154 L59.1573333,6.53846154 C58.4053333,6.53846154 57.9666667,6.66666667 57.716,6.85897436 C57.528,6.92307692 57.4653333,7.24358974 57.4653333,7.69230769 Z" id="Shape"></path>
                    <path d="M64.2333333,2.94871795 L65.1733333,2.94871795 L65.1733333,3.84615385 C65.424,3.46153846 65.7373333,3.14102564 66.1133333,3.01282051 C66.4893333,2.88461538 66.928,2.75641026 67.492,2.75641026 C68.1186667,2.75641026 68.62,2.82051282 68.9333333,3.01282051 C69.3093333,3.14102564 69.56,3.3974359 69.6853333,3.78205128 C69.8733333,4.16666667 69.936,4.61538462 69.936,5.25641026 L69.936,9.80769231 L68.9333333,9.80769231 L68.9333333,5.32051282 C68.9333333,4.87179487 68.8706667,4.48717949 68.808,4.23076923 C68.7453333,3.97435897 68.5573333,3.84615385 68.3066667,3.71794872 C68.056,3.58974359 67.7426667,3.58974359 67.2413333,3.58974359 C65.9253333,3.58974359 65.236,4.23076923 65.236,5.57692308 L65.236,9.80769231 L64.2333333,9.80769231 L64.2333333,2.94871795 L64.2333333,2.94871795 Z" id="Path"></path>
                    <path d="M76.3906667,2.94871795 L76.3906667,3.78205128 L73.8213333,3.78205128 L73.8213333,8.01282051 C73.8213333,8.46153846 73.884,8.71794872 74.0093333,8.84615385 C74.1346667,8.97435897 74.3853333,9.1025641 74.7613333,9.1025641 C75.2,9.1025641 75.4506667,9.03846154 75.576,8.84615385 C75.7013333,8.65384615 75.764,8.33333333 75.764,7.88461538 L75.764,7.43589744 L76.704,7.43589744 C76.704,8.26923077 76.5786667,8.91025641 76.328,9.29487179 C76.0773333,9.67948718 75.576,9.93589744 74.7613333,9.93589744 C74.26,9.93589744 73.884,9.87179487 73.5706667,9.74358974 C73.2573333,9.61538462 73.0693333,9.42307692 72.944,9.16666667 C72.8186667,8.91025641 72.756,8.52564103 72.756,8.01282051 L72.756,3.78205128 L71.8786667,3.78205128 L71.8786667,2.94871795 L72.756,2.94871795 L72.756,1.28205128 L73.7586667,1.28205128 L73.7586667,2.94871795 L76.3906667,2.94871795 Z" id="Path"></path>
                    <path d="M84.3493333,4.74358974 L83.3466667,4.74358974 C83.3466667,4.29487179 83.2213333,4.03846154 82.908,3.84615385 C82.6573333,3.71794872 82.2813333,3.65384615 81.78,3.65384615 L81.2786667,3.65384615 C80.7773333,3.65384615 80.464,3.71794872 80.2133333,3.84615385 C79.9626667,3.97435897 79.8373333,4.29487179 79.8373333,4.67948718 C79.8373333,4.93589744 79.8373333,5.19230769 79.9,5.32051282 C79.9626667,5.44871795 80.0253333,5.57692308 80.2133333,5.64102564 C80.3386667,5.70512821 80.5893333,5.76923077 80.84,5.76923077 C81.2786667,5.76923077 81.78,5.76923077 82.2186667,5.76923077 C82.6573333,5.76923077 83.0333333,5.83333333 83.4093333,5.96153846 C83.7226667,6.08974359 84.036,6.28205128 84.224,6.53846154 C84.412,6.79487179 84.5373333,7.24358974 84.5373333,7.75641026 C84.5373333,8.3974359 84.412,8.84615385 84.224,9.16666667 C83.9733333,9.48717949 83.66,9.67948718 83.284,9.74358974 C82.908,9.80769231 82.344,9.87179487 81.7173333,9.87179487 C81.0906667,9.87179487 80.5893333,9.80769231 80.2133333,9.74358974 C79.8373333,9.67948718 79.4613333,9.48717949 79.2106667,9.23076923 C78.96,8.97435897 78.8346667,8.52564103 78.8346667,7.94871795 C78.8346667,7.75641026 78.8346667,7.62820513 78.8346667,7.56410256 L79.8373333,7.56410256 C79.8373333,7.94871795 79.9,8.26923077 79.9626667,8.46153846 C80.088,8.65384615 80.2133333,8.78205128 80.464,8.91025641 C80.7146667,8.97435897 81.028,9.03846154 81.404,9.03846154 L81.6546667,9.03846154 C82.4693333,9.03846154 82.9706667,8.97435897 83.2213333,8.78205128 C83.4093333,8.65384615 83.5346667,8.33333333 83.5346667,7.75641026 C83.5346667,7.30769231 83.4093333,6.98717949 83.2213333,6.92307692 C83.0333333,6.79487179 82.72,6.73076923 82.2813333,6.73076923 L81.8426667,6.73076923 C81.8426667,6.73076923 81.78,6.73076923 81.78,6.73076923 C81.78,6.73076923 81.7173333,6.73076923 81.6546667,6.73076923 C80.9653333,6.66666667 80.5266667,6.66666667 80.3386667,6.66666667 C80.1506667,6.66666667 79.9,6.6025641 79.6493333,6.47435897 C79.3986667,6.34615385 79.2106667,6.15384615 79.0853333,5.8974359 C78.96,5.64102564 78.8973333,5.32051282 78.8973333,4.87179487 C78.8973333,4.03846154 79.0853333,3.52564103 79.3986667,3.26923077 C79.8373333,2.94871795 80.5893333,2.75641026 81.592,2.75641026 C82.156,2.75641026 82.6573333,2.82051282 83.0333333,2.88461538 C83.4093333,2.94871795 83.7853333,3.14102564 84.036,3.46153846 C84.224,3.78205128 84.3493333,4.23076923 84.3493333,4.74358974 Z" id="Path"></path>
                    <path d="M98.888,5.51282051 L99.9533333,5.51282051 C99.9533333,6.47435897 99.9533333,7.17948718 99.8906667,7.69230769 L101.582667,9.1025641 L100.956,9.87179487 L99.5146667,8.65384615 C99.3893333,8.97435897 99.2013333,9.16666667 98.9506667,9.35897436 C98.7,9.55128205 98.4493333,9.67948718 98.1986667,9.74358974 C97.948,9.80769231 97.6346667,9.87179487 97.3213333,9.87179487 C97.008,9.87179487 96.6946667,9.87179487 96.3186667,9.87179487 C95.504,9.87179487 94.94,9.87179487 94.4386667,9.80769231 C94,9.74358974 93.624,9.61538462 93.248,9.42307692 C92.9346667,9.23076923 92.6213333,8.91025641 92.496,8.46153846 C92.308,8.01282051 92.2453333,7.43589744 92.2453333,6.66666667 C92.2453333,6.21794872 92.2453333,5.8974359 92.308,5.57692308 C92.3706667,5.25641026 92.496,5 92.684,4.74358974 C92.8093333,4.61538462 92.9346667,4.48717949 93.1226667,4.42307692 C93.248,4.35897436 93.4986667,4.29487179 93.7493333,4.23076923 C94,4.16666667 94.188,4.1025641 94.188,4.1025641 C93.9373333,3.91025641 93.7493333,3.71794872 93.624,3.58974359 C93.4986667,3.46153846 93.436,3.26923077 93.3733333,3.07692308 C93.3106667,2.88461538 93.3106667,2.62820513 93.3106667,2.30769231 C93.3106667,1.66666667 93.436,1.15384615 93.6866667,0.833333333 C93.9373333,0.512820513 94.2506667,0.320512821 94.6266667,0.192307692 C95.0026667,0.0641025641 95.5666667,0.0641025641 96.1933333,0.0641025641 C96.8826667,0.0641025641 97.384,0.128205128 97.8226667,0.256410256 C98.1986667,0.384615385 98.512,0.576923077 98.7,0.961538462 C98.888,1.28205128 99.0133333,1.79487179 99.0133333,2.5 L99.0133333,3.01282051 L97.948,3.01282051 C97.948,2.94871795 97.948,2.82051282 97.948,2.69230769 C97.948,2.30769231 97.948,1.98717949 97.8853333,1.73076923 C97.8226667,1.53846154 97.76,1.34615385 97.6346667,1.28205128 C97.5093333,1.21794872 97.3213333,1.15384615 97.1333333,1.08974359 C96.9453333,1.08974359 96.5693333,1.02564103 96.1306667,1.02564103 C95.5666667,1.02564103 95.1906667,1.08974359 94.8773333,1.21794872 C94.6266667,1.34615385 94.5013333,1.66666667 94.5013333,2.11538462 C94.5013333,2.5 94.564,2.75641026 94.6893333,3.01282051 C94.8146667,3.20512821 95.0026667,3.46153846 95.316,3.71794872 L98.9506667,6.79487179 C98.9506667,6.66666667 98.9506667,6.41025641 98.9506667,6.15384615 L98.9506667,5.51282051 L98.888,5.51282051 Z M94.94,4.80769231 C94.4386667,4.93589744 94.1253333,5.06410256 93.9373333,5.12820513 C93.7493333,5.19230769 93.624,5.38461538 93.5613333,5.57692308 C93.4986667,5.83333333 93.436,6.15384615 93.436,6.66666667 C93.436,7.30769231 93.4986667,7.82051282 93.5613333,8.14102564 C93.624,8.46153846 93.8746667,8.65384615 94.1253333,8.78205128 C94.4386667,8.91025641 94.8773333,8.97435897 95.504,8.97435897 L96.444,8.97435897 C97.0706667,8.97435897 97.572,8.91025641 97.948,8.78205128 C98.324,8.65384615 98.5746667,8.3974359 98.7,7.94871795 L94.94,4.80769231 Z" id="Shape"></path>
                    <path d="M115.808,6.53846154 L116.873333,6.53846154 C116.873333,6.66666667 116.873333,6.79487179 116.873333,6.98717949 C116.873333,7.17948718 116.873333,7.37179487 116.873333,7.43589744 C116.873333,8.91025641 116.184,9.74358974 114.742667,9.87179487 C114.241333,9.87179487 113.74,9.93589744 113.176,9.93589744 L111.797333,9.93589744 C111.108,9.87179487 110.606667,9.67948718 110.230667,9.42307692 C109.854667,9.1025641 109.604,8.78205128 109.416,8.26923077 C109.290667,7.82051282 109.165333,7.24358974 109.165333,6.6025641 C109.165333,5.96153846 109.102667,5.38461538 109.102667,4.93589744 L109.102667,3.3974359 C109.102667,2.75641026 109.165333,2.17948718 109.290667,1.73076923 C109.416,1.28205128 109.666667,0.897435897 110.042667,0.641025641 C110.418667,0.384615385 110.92,0.192307692 111.546667,0.128205128 C111.922667,0.0641025641 112.549333,0.0641025641 113.426667,0.0641025641 C114.116,0.0641025641 114.617333,0.128205128 115.056,0.192307692 C115.432,0.256410256 115.745333,0.384615385 115.996,0.641025641 C116.246667,0.897435897 116.372,1.15384615 116.497333,1.53846154 C116.622667,1.92307692 116.685333,2.5 116.685333,3.20512821 L115.62,3.20512821 C115.62,2.62820513 115.557333,2.24358974 115.494667,1.92307692 C115.432,1.6025641 115.244,1.41025641 114.993333,1.28205128 C114.742667,1.15384615 114.366667,1.08974359 113.865333,1.08974359 C113.238667,1.08974359 112.612,1.08974359 111.86,1.15384615 C111.421333,1.21794872 111.045333,1.28205128 110.794667,1.47435897 C110.544,1.66666667 110.418667,1.92307692 110.356,2.17948718 C110.293333,2.5 110.230667,2.88461538 110.230667,3.46153846 L110.230667,5.70512821 C110.230667,7.05128205 110.356,7.94871795 110.606667,8.3974359 C110.857333,8.84615385 111.484,9.03846154 112.549333,9.03846154 C112.612,9.03846154 112.737333,9.03846154 112.988,9.03846154 C113.176,9.03846154 113.364,9.03846154 113.489333,9.03846154 C114.116,9.03846154 114.68,8.97435897 115.118667,8.78205128 C115.557333,8.58974359 115.745333,8.26923077 115.808,7.69230769 C115.808,7.56410256 115.808,7.37179487 115.808,7.11538462 C115.808,6.79487179 115.808,6.6025641 115.808,6.53846154 Z" id="Path"></path>
                    <path d="M118.941333,6.21794872 C118.941333,5.38461538 119.004,4.74358974 119.129333,4.23076923 C119.254667,3.78205128 119.568,3.3974359 119.944,3.14102564 C120.382667,2.88461538 120.946667,2.82051282 121.761333,2.82051282 C122.638667,2.82051282 123.265333,2.94871795 123.704,3.14102564 C124.142667,3.33333333 124.456,3.65384615 124.581333,4.1025641 C124.769333,4.55128205 124.832,5.25641026 124.832,6.15384615 C124.832,7.11538462 124.769333,7.82051282 124.706667,8.33333333 C124.644,8.84615385 124.393333,9.23076923 123.954667,9.55128205 C123.578667,9.87179487 122.889333,10 122.012,10 C121.197333,10 120.508,9.93589744 120.069333,9.74358974 C119.630667,9.55128205 119.317333,9.29487179 119.129333,8.84615385 C118.941333,8.3974359 118.816,7.75641026 118.816,6.92307692 L118.816,6.21794872 L118.941333,6.21794872 Z M119.944,6.21794872 L119.944,6.79487179 C119.944,7.88461538 120.069333,8.52564103 120.32,8.84615385 C120.508,9.03846154 120.884,9.16666667 121.385333,9.16666667 L121.886667,9.16666667 C122.325333,9.16666667 122.638667,9.1025641 122.889333,9.03846154 C123.14,8.97435897 123.328,8.84615385 123.453333,8.58974359 C123.578667,8.3974359 123.704,8.07692308 123.704,7.62820513 C123.704,7.24358974 123.704,6.73076923 123.704,6.02564103 C123.704,5.38461538 123.704,4.87179487 123.641333,4.55128205 C123.578667,4.23076923 123.453333,4.03846154 123.202667,3.84615385 C122.952,3.71794872 122.576,3.58974359 122.074667,3.58974359 L121.886667,3.58974359 C121.26,3.58974359 120.821333,3.65384615 120.570667,3.78205128 C120.32,3.91025641 120.132,4.1025641 120.006667,4.42307692 C119.944,4.74358974 119.881333,5.25641026 119.881333,5.8974359 L119.881333,6.21794872 L119.944,6.21794872 Z" id="Shape"></path>
                    <path d="M126.9,2.94871795 L127.84,2.94871795 L127.84,3.84615385 C128.090667,3.46153846 128.404,3.14102564 128.78,3.01282051 C129.156,2.88461538 129.594667,2.75641026 130.158667,2.75641026 C130.785333,2.75641026 131.286667,2.82051282 131.6,3.01282051 C131.976,3.14102564 132.226667,3.3974359 132.352,3.78205128 C132.54,4.16666667 132.602667,4.61538462 132.602667,5.25641026 L132.602667,9.80769231 L131.6,9.80769231 L131.6,5.32051282 C131.6,4.87179487 131.537333,4.48717949 131.474667,4.23076923 C131.412,3.97435897 131.224,3.84615385 130.973333,3.71794872 C130.722667,3.58974359 130.409333,3.58974359 129.908,3.58974359 C128.592,3.58974359 127.902667,4.23076923 127.902667,5.57692308 L127.902667,9.80769231 L126.9,9.80769231 L126.9,2.94871795 L126.9,2.94871795 Z" id="Path"></path>
                    <path d="M140.248,4.74358974 L139.245333,4.74358974 C139.245333,4.29487179 139.12,4.03846154 138.806667,3.84615385 C138.556,3.71794872 138.18,3.65384615 137.678667,3.65384615 L137.177333,3.65384615 C136.676,3.65384615 136.362667,3.71794872 136.112,3.84615385 C135.861333,3.97435897 135.736,4.29487179 135.736,4.67948718 C135.736,4.93589744 135.736,5.19230769 135.798667,5.32051282 C135.861333,5.44871795 135.924,5.57692308 136.112,5.64102564 C136.237333,5.70512821 136.488,5.76923077 136.738667,5.76923077 C137.177333,5.76923077 137.678667,5.76923077 138.117333,5.76923077 C138.556,5.76923077 138.932,5.83333333 139.308,5.96153846 C139.621333,6.08974359 139.934667,6.28205128 140.122667,6.53846154 C140.310667,6.79487179 140.436,7.24358974 140.436,7.75641026 C140.436,8.3974359 140.310667,8.84615385 140.122667,9.16666667 C139.872,9.48717949 139.558667,9.67948718 139.182667,9.74358974 C138.806667,9.80769231 138.242667,9.87179487 137.616,9.87179487 C136.989333,9.87179487 136.488,9.80769231 136.112,9.74358974 C135.736,9.67948718 135.36,9.48717949 135.109333,9.23076923 C134.858667,8.97435897 134.733333,8.52564103 134.733333,7.94871795 C134.733333,7.75641026 134.733333,7.62820513 134.733333,7.56410256 L135.736,7.56410256 C135.736,7.94871795 135.798667,8.26923077 135.861333,8.46153846 C135.924,8.65384615 136.112,8.78205128 136.362667,8.91025641 C136.613333,8.97435897 136.926667,9.03846154 137.302667,9.03846154 L137.553333,9.03846154 C138.368,9.03846154 138.869333,8.97435897 139.12,8.78205128 C139.308,8.65384615 139.433333,8.33333333 139.433333,7.75641026 C139.433333,7.30769231 139.308,6.98717949 139.12,6.92307692 C138.932,6.79487179 138.618667,6.73076923 138.18,6.73076923 L137.741333,6.73076923 C137.741333,6.73076923 137.678667,6.73076923 137.678667,6.73076923 C137.616,6.73076923 137.616,6.73076923 137.553333,6.73076923 C136.864,6.66666667 136.425333,6.66666667 136.237333,6.66666667 C136.049333,6.66666667 135.798667,6.6025641 135.548,6.47435897 C135.297333,6.34615385 135.109333,6.15384615 134.984,5.8974359 C134.858667,5.64102564 134.796,5.32051282 134.796,4.87179487 C134.796,4.03846154 134.984,3.52564103 135.297333,3.26923077 C135.736,2.94871795 136.488,2.75641026 137.490667,2.75641026 C138.054667,2.75641026 138.556,2.82051282 138.932,2.88461538 C139.308,2.94871795 139.684,3.14102564 139.934667,3.46153846 C140.122667,3.78205128 140.248,4.23076923 140.248,4.74358974 Z" id="Path"></path>
                    <path d="M148.081333,2.94871795 L148.081333,9.87179487 L147.141333,9.87179487 L147.141333,8.97435897 C146.890667,9.35897436 146.514667,9.67948718 146.201333,9.80769231 C145.825333,9.93589744 145.386667,10 144.822667,10 C144.008,10 143.444,9.80769231 143.068,9.42307692 C142.692,9.03846154 142.504,8.3974359 142.504,7.56410256 L142.504,3.01282051 L143.569333,3.01282051 L143.569333,7.56410256 C143.569333,8.01282051 143.632,8.26923077 143.694667,8.52564103 C143.757333,8.71794872 143.945333,8.91025641 144.133333,8.97435897 C144.321333,9.03846154 144.634667,9.1025641 145.073333,9.1025641 C145.637333,9.1025641 146.013333,9.03846154 146.326667,8.91025641 C146.64,8.78205128 146.828,8.58974359 146.953333,8.26923077 C147.078667,7.94871795 147.141333,7.56410256 147.141333,7.05128205 L147.141333,3.01282051 L148.081333,3.01282051 L148.081333,2.94871795 Z" id="Path"></path>
                    <polygon id="Path" points="151.089333 0 151.089333 9.87179487 150.086667 9.87179487 150.086667 0"></polygon>
                    <path d="M157.544,2.94871795 L157.544,3.78205128 L154.974667,3.78205128 L154.974667,8.01282051 C154.974667,8.46153846 155.037333,8.71794872 155.162667,8.84615385 C155.288,8.97435897 155.538667,9.1025641 155.914667,9.1025641 C156.353333,9.1025641 156.604,9.03846154 156.729333,8.84615385 C156.854667,8.65384615 156.917333,8.33333333 156.917333,7.88461538 L156.917333,7.43589744 L157.857333,7.43589744 C157.857333,8.26923077 157.732,8.91025641 157.481333,9.29487179 C157.230667,9.67948718 156.729333,9.93589744 155.914667,9.93589744 C155.413333,9.93589744 155.037333,9.87179487 154.724,9.74358974 C154.410667,9.61538462 154.222667,9.42307692 154.097333,9.16666667 C153.972,8.91025641 153.909333,8.52564103 153.909333,8.01282051 L153.909333,3.78205128 L153.032,3.78205128 L153.032,2.94871795 L153.909333,2.94871795 L153.909333,1.28205128 L154.912,1.28205128 L154.912,2.94871795 L157.544,2.94871795 Z" id="Path"></path>
                    <path d="M161.178667,4.93589744 L160.113333,4.93589744 C160.113333,4.1025641 160.301333,3.52564103 160.74,3.26923077 C161.178667,3.01282051 161.868,2.88461538 162.745333,2.88461538 C163.434667,2.88461538 163.998667,2.94871795 164.374667,3.07692308 C164.750667,3.20512821 165.126667,3.3974359 165.314667,3.78205128 C165.502667,4.1025641 165.628,4.67948718 165.628,5.32051282 L165.628,9.80769231 L164.688,9.80769231 L164.750667,9.1025641 C164.5,9.42307692 164.186667,9.67948718 163.810667,9.80769231 C163.434667,9.93589744 162.996,10 162.432,10 C161.805333,10 161.366667,9.93589744 160.990667,9.80769231 C160.614667,9.67948718 160.301333,9.48717949 160.113333,9.16666667 C159.925333,8.84615385 159.8,8.3974359 159.8,7.75641026 C159.8,7.17948718 159.925333,6.73076923 160.113333,6.41025641 C160.301333,6.08974359 160.614667,5.8974359 160.990667,5.83333333 C161.366667,5.70512821 161.868,5.70512821 162.432,5.70512821 C162.933333,5.70512821 163.372,5.76923077 163.748,5.83333333 C164.124,5.8974359 164.374667,6.08974359 164.562667,6.41025641 L164.562667,5.57692308 C164.562667,5 164.5,4.55128205 164.437333,4.29487179 C164.374667,4.03846154 164.186667,3.84615385 163.873333,3.78205128 C163.622667,3.71794872 163.184,3.65384615 162.62,3.65384615 C161.993333,3.65384615 161.554667,3.71794872 161.304,3.91025641 C161.116,4.03846154 160.990667,4.29487179 160.990667,4.67948718 C160.990667,4.67948718 160.990667,4.74358974 160.990667,4.80769231 C161.178667,4.87179487 161.178667,4.93589744 161.178667,4.93589744 Z M160.928,7.69230769 C160.928,8.26923077 161.053333,8.65384615 161.241333,8.84615385 C161.492,9.03846154 161.868,9.16666667 162.432,9.16666667 C162.870667,9.16666667 163.246667,9.16666667 163.56,9.1025641 C163.873333,9.03846154 164.124,8.91025641 164.374667,8.78205128 C164.625333,8.58974359 164.688,8.26923077 164.688,7.88461538 C164.688,7.30769231 164.562667,6.98717949 164.249333,6.79487179 C163.936,6.66666667 163.497333,6.53846154 162.870667,6.53846154 L162.62,6.53846154 C161.868,6.53846154 161.429333,6.66666667 161.178667,6.85897436 C161.053333,6.92307692 160.928,7.24358974 160.928,7.69230769 Z" id="Shape"></path>
                    <path d="M167.758667,2.94871795 L168.698667,2.94871795 L168.698667,3.84615385 C168.949333,3.46153846 169.262667,3.14102564 169.638667,3.01282051 C170.014667,2.88461538 170.453333,2.75641026 171.017333,2.75641026 C171.644,2.75641026 172.145333,2.82051282 172.458667,3.01282051 C172.834667,3.14102564 173.085333,3.3974359 173.210667,3.78205128 C173.398667,4.16666667 173.461333,4.61538462 173.461333,5.25641026 L173.461333,9.80769231 L172.458667,9.80769231 L172.458667,5.32051282 C172.458667,4.87179487 172.396,4.48717949 172.333333,4.23076923 C172.270667,3.97435897 172.082667,3.84615385 171.832,3.71794872 C171.581333,3.58974359 171.268,3.58974359 170.766667,3.58974359 C169.450667,3.58974359 168.761333,4.23076923 168.761333,5.57692308 L168.761333,9.80769231 L167.758667,9.80769231 L167.758667,2.94871795 L167.758667,2.94871795 Z" id="Path"></path>
                    <path d="M179.853333,2.94871795 L179.853333,3.78205128 L177.284,3.78205128 L177.284,8.01282051 C177.284,8.46153846 177.346667,8.71794872 177.472,8.84615385 C177.597333,8.97435897 177.848,9.1025641 178.224,9.1025641 C178.662667,9.1025641 178.913333,9.03846154 179.038667,8.84615385 C179.164,8.65384615 179.226667,8.33333333 179.226667,7.88461538 L179.226667,7.43589744 L180.166667,7.43589744 C180.166667,8.26923077 180.041333,8.91025641 179.790667,9.29487179 C179.54,9.67948718 179.038667,9.93589744 178.224,9.93589744 C177.722667,9.93589744 177.346667,9.87179487 177.033333,9.74358974 C176.72,9.61538462 176.532,9.42307692 176.406667,9.16666667 C176.281333,8.91025641 176.218667,8.52564103 176.218667,8.01282051 L176.218667,3.78205128 L175.341333,3.78205128 L175.341333,2.94871795 L176.218667,2.94871795 L176.218667,1.28205128 L177.221333,1.28205128 L177.221333,2.94871795 L179.853333,2.94871795 Z" id="Path"></path>
                    <path d="M187.812,4.74358974 L186.809333,4.74358974 C186.809333,4.29487179 186.684,4.03846154 186.370667,3.84615385 C186.12,3.71794872 185.744,3.65384615 185.242667,3.65384615 L184.741333,3.65384615 C184.24,3.65384615 183.926667,3.71794872 183.676,3.84615385 C183.425333,3.97435897 183.3,4.29487179 183.3,4.67948718 C183.3,4.93589744 183.3,5.19230769 183.362667,5.32051282 C183.425333,5.44871795 183.488,5.57692308 183.676,5.64102564 C183.801333,5.70512821 184.052,5.76923077 184.302667,5.76923077 C184.741333,5.76923077 185.242667,5.76923077 185.681333,5.76923077 C186.12,5.76923077 186.496,5.83333333 186.872,5.96153846 C187.185333,6.08974359 187.498667,6.28205128 187.686667,6.53846154 C187.874667,6.79487179 188,7.24358974 188,7.75641026 C188,8.3974359 187.874667,8.84615385 187.686667,9.16666667 C187.436,9.48717949 187.122667,9.67948718 186.746667,9.74358974 C186.370667,9.80769231 185.806667,9.87179487 185.18,9.87179487 C184.553333,9.87179487 184.052,9.80769231 183.676,9.74358974 C183.3,9.67948718 182.924,9.48717949 182.673333,9.23076923 C182.422667,8.97435897 182.297333,8.52564103 182.297333,7.94871795 C182.297333,7.75641026 182.297333,7.62820513 182.297333,7.56410256 L183.3,7.56410256 C183.3,7.94871795 183.362667,8.26923077 183.425333,8.46153846 C183.550667,8.65384615 183.676,8.78205128 183.926667,8.91025641 C184.177333,8.97435897 184.490667,9.03846154 184.866667,9.03846154 L185.117333,9.03846154 C185.932,9.03846154 186.433333,8.97435897 186.684,8.78205128 C186.872,8.65384615 186.997333,8.33333333 186.997333,7.75641026 C186.997333,7.30769231 186.872,6.98717949 186.684,6.92307692 C186.496,6.79487179 186.182667,6.73076923 185.744,6.73076923 L185.305333,6.73076923 C185.305333,6.73076923 185.242667,6.73076923 185.242667,6.73076923 C185.18,6.73076923 185.18,6.73076923 185.117333,6.73076923 C184.428,6.66666667 183.989333,6.66666667 183.801333,6.66666667 C183.613333,6.66666667 183.362667,6.6025641 183.112,6.47435897 C182.861333,6.34615385 182.673333,6.15384615 182.548,5.8974359 C182.422667,5.64102564 182.36,5.32051282 182.36,4.87179487 C182.36,4.03846154 182.548,3.52564103 182.861333,3.26923077 C183.3,2.94871795 184.052,2.75641026 185.054667,2.75641026 C185.618667,2.75641026 186.12,2.82051282 186.496,2.88461538 C186.872,2.94871795 187.248,3.14102564 187.498667,3.46153846 C187.686667,3.78205128 187.812,4.23076923 187.812,4.74358974 Z" id="Path"></path>
                </g>
            </g>
        </g>
    </g>
</svg>