<svg width="72" height="39" viewBox="0 0 72 39" fill="none" xmlns="http://www.w3.org/2000/svg">
<path d="M48.4201 0C58.9272 0 67.353 8.20323 67.353 18.1682C67.353 21.7917 66.2877 25.0624 64.5602 27.9313L71.3037 32.6926L67.353 38.4L59.6881 32.8639C56.5909 35.0783 52.632 36.4873 48.4201 36.4873C37.9131 36.4873 29.4872 28.2841 29.4872 18.1682C29.4872 8.05234 37.9131 0 48.4201 0ZM37.9131 18.1682C37.9131 24.4099 42.6843 29.3913 48.4201 29.3913C50.0942 29.3913 51.6695 28.9387 53.14 28.1332L50.4191 26.1777L54.5117 20.9862L57.8105 23.2517C58.4706 21.7407 58.9272 20.0299 58.9272 18.1682C58.9272 12.1285 54.1045 7.09601 48.4201 7.09601C42.7357 7.09601 37.9131 12.1285 37.9131 18.1682Z" fill="#5B3C90"/>
<path d="M10.542 14.4551H15.6218L14.6099 16.0476H13.8799L11.2947 22.2648H9.60834L7.81089 17.4627L6.01344 22.2648H4.32704L1.74192 16.07H1.01184L0 14.4551H5.07975L4.23655 16.07H3.51675L5.1579 20.3378L6.78671 16.07H6.18002L5.35945 14.4551H10.2706L9.42736 16.07H8.83095L10.4721 20.3378L12.0783 16.0476H11.3708L10.54 14.4551H10.542Z" fill="#F3F2F9"/>
<path d="M26.0754 16.0598V20.6498H26.8507L28.1772 22.2423H22.9062L23.737 20.6498H24.3992V18.99H20.9277V20.6498H21.59L22.4332 22.2423H17.1519L18.4783 20.6498H19.2537V16.0598H18.4783L17.1519 14.4673H22.4332L21.59 16.0598H20.9277V17.6523H24.3992V16.0598H23.737L22.9062 14.4673H28.1772L26.8507 16.0598H26.0754Z" fill="#F3F2F9"/>
<path d="M29.4296 18.3334C29.4296 16.0945 31.3278 14.2878 33.6436 14.2878C35.9593 14.2878 37.8472 16.0924 37.8472 18.3334C37.8472 20.5743 35.9716 22.4013 33.6436 22.4013C31.3155 22.4013 29.4296 20.5743 29.4296 18.3334ZM31.3278 18.3334C31.3278 19.7159 32.3623 20.819 33.6436 20.819C34.9248 20.819 35.9695 19.7159 35.9695 18.3334C35.9695 16.9509 34.9351 15.8702 33.6436 15.8702C32.352 15.8702 31.3278 16.9855 31.3278 18.3334Z" fill="#F3F2F9"/>
<path d="M40.1526 15.9701C39.7023 15.8477 39.4452 15.4011 39.5686 14.9444C39.6817 14.4978 40.1526 14.2307 40.6133 14.3531C40.928 14.4305 41.1748 14.6977 41.22 15.0096C41.22 15.0198 41.5244 16.1576 40.0622 17.1833L39.511 16.961C39.511 16.961 40.1506 16.4268 40.1506 15.9701H40.1526Z" fill="#F3F2F9"/>
<path d="M44.4818 16.1597C44.381 16.5716 44.6956 16.9284 47.2911 17.5646C51.034 18.4231 50.3698 20.6844 50.3698 20.6844C50.3698 20.6844 50.1106 22.4013 47.1779 22.4013C45.5718 22.4013 44.4818 21.81 43.7722 21.1208C43.7167 21.1656 43.7167 21.2778 43.6591 21.3206L42.2648 22.0791C42.2648 22.0791 42.6925 20.5294 42.2648 19.4059L43.6591 18.7493C44.636 21.0107 47.9286 21.2452 48.2103 20.2093C48.2556 19.9422 48.0191 19.6853 47.6941 19.5181C46.9867 19.1959 46.4355 19.1286 44.8622 18.5923C43.2334 18.1029 42.6494 17.1894 42.6494 17.1894C42.2113 16.5532 42.3121 15.9741 42.3121 15.9741C42.3121 15.9741 42.4807 14.3021 45.5718 14.3021C47.0216 14.3021 47.8875 14.8363 48.4263 15.3155C48.4818 15.1585 48.5394 14.9933 48.5949 14.8363L49.9543 14.09C49.9543 14.09 49.5163 15.3155 49.9543 16.4961L48.5949 17.1303C48.5949 17.1303 48.5949 17.0304 48.5394 16.9305C47.6859 15.2584 44.6504 15.4481 44.4818 16.1617V16.1597Z" fill="#F3F2F9"/>
</svg>
